Coordinates
version=1
nRows=16
nColumns=38
inDegrees=no

Units are S.I. units (second, meters, Newtons, ...)
If the header above contains a line with 'inDegrees', this indicates whether rotational values are in degrees (yes) or radians (no).

endheader
time	pelvis_tilt	pelvis_list	pelvis_rotation	pelvis_tx	pelvis_ty	pelvis_tz	hip_flexion_r	hip_adduction_r	hip_rotation_r	knee_angle_r	ankle_angle_r	subtalar_angle_r	mtp_angle_r	hip_flexion_l	hip_adduction_l	hip_rotation_l	knee_angle_l	ankle_angle_l	subtalar_angle_l	mtp_angle_l	lumbar_extension	lumbar_bending	lumbar_rotation	arm_flex_r	arm_add_r	arm_rot_r	elbow_flex_r	pro_sup_r	wrist_flex_r	wrist_dev_r	arm_flex_l	arm_add_l	arm_rot_l	elbow_flex_l	pro_sup_l	wrist_flex_l	wrist_dev_l
0.566667	0.1329	0.0521487	0.13065	0.7257	0.974949	-0.367227	0.493462	-0.152528	-0.0845102	-2.13048	0.0415114	-0.0493122	-0.0109204	-0.143591	0.167003	0.176879	-0.596179	0.410889	0.0217284	-0.0340679	-0.45272	-0.00622363	-0.222236	-0.507825	-0.43147	0.0064762	1.67946	1.26423	0.0394043	-0.0111488	-0.168165	-0.49254	-0.225115	2.15592	1.63602	0.067436	-0.0572898
0.575	0.125694	0.034007	0.141801	0.726396	0.979606	-0.368724	0.541653	-0.138639	-0.0957989	-2.0765	0.0516756	-0.0493122	-0.0109204	-0.198324	0.134525	0.183763	-0.537303	0.363982	0.0217284	-0.0340679	-0.438353	0.0211622	-0.245423	-0.53081	-0.438043	0.00193386	1.69635	1.25208	0.0394043	-0.0111488	-0.150234	-0.473538	-0.222011	2.17276	1.63316	0.067436	-0.0572898
0.583333	0.117244	0.0154842	0.152973	0.727389	0.984331	-0.370255	0.585058	-0.125934	-0.110384	-2.01336	0.0613913	-0.0493122	-0.0109204	-0.247701	0.100871	0.18396	-0.4817	0.305735	0.0217284	-0.0340679	-0.421833	0.0487755	-0.267639	-0.554239	-0.446174	-0.00302379	1.71465	1.24312	0.0394043	-0.0111488	-0.137934	-0.457151	-0.215532	2.19154	1.62974	0.067436	-0.0572898
0.591667	0.108106	-0.00256516	0.163492	0.728555	0.98905	-0.371712	0.622997	-0.114428	-0.126856	-1.94165	0.0710245	-0.0493122	-0.0109204	-0.291129	0.0673274	0.176511	-0.431992	0.238182	0.0217284	-0.0340679	-0.404284	0.0753586	-0.288631	-0.577351	-0.455253	-0.00829337	1.73321	1.23777	0.0394043	-0.0111488	-0.130782	-0.443909	-0.205984	2.21163	1.62689	0.067436	-0.0572898
0.6	0.098779	-0.019329	0.172785	0.729777	0.993691	-0.372998	0.654854	-0.104073	-0.143913	-1.86189	0.0808928	-0.0493122	-0.0109204	-0.328203	0.0351606	0.161174	-0.390714	0.164112	0.0217284	-0.0340679	-0.38678	0.0997615	-0.308246	-0.599372	-0.464703	-0.0137199	1.75111	1.23596	0.0394043	-0.0111488	-0.12838	-0.434089	-0.194039	2.23253	1.6257	0.067436	-0.0572898
0.608333	0.0896497	-0.0340625	0.180415	0.730959	0.998181	-0.374046	0.680136	-0.0947993	-0.160439	-1.77448	0.0911934	-0.0493122	-0.0109204	-0.358685	0.00557039	0.138593	-0.360183	0.0868924	0.0217284	-0.0340679	-0.370247	0.120991	-0.32641	-0.619589	-0.474017	-0.0191489	1.76775	1.23721	0.0394043	-0.0111488	-0.130407	-0.427737	-0.18059	2.25385	1.62713	0.067436	-0.0572898
0.616667	0.0809756	-0.0461104	0.186097	0.732024	1.00245	-0.374822	0.698512	-0.0865477	-0.175552	-1.67986	0.101943	-0.0493122	-0.0109204	-0.382489	-0.0203496	0.110354	-0.342357	0.0102049	0.0217284	-0.0340679	-0.355408	0.13825	-0.343096	-0.637423	-0.482763	-0.0244872	1.78278	1.24078	0.0394043	-0.0111488	-0.13658	-0.424699	-0.166562	2.27526	1.63178	0.067436	-0.0572898
0.625	0.0729008	-0.0549391	0.189707	0.732918	1.00642	-0.375327	0.709839	-0.0792918	-0.188629	-1.57854	0.112941	-0.0493122	-0.0109204	-0.399677	-0.0416545	0.0788904	-0.338729	-0.0622606	0.0217284	-0.0340679	-0.342763	0.150972	-0.35828	-0.652481	-0.490603	-0.0297531	1.79612	1.24584	0.0394043	-0.0111488	-0.146598	-0.424663	-0.152729	2.2964	1.63979	0.067436	-0.0572898
0.633333	0.0654974	-0.0601785	0.19127	0.733605	1.01005	-0.375597	0.714159	-0.0730491	-0.19933	-1.47126	0.123776	-0.0493122	-0.0109204	-0.410459	-0.0575972	0.0472146	-0.350229	-0.127117	0.0217284	-0.0340679	-0.3326	0.158868	-0.371917	-0.664585	-0.497294	-0.0351001	1.80787	1.25163	0.0394043	-0.0111488	-0.160101	-0.427204	-0.139568	2.31688	1.65074	0.067436	-0.0572898
0.641667	0.0588196	-0.061668	0.190934	0.734069	1.01326	-0.375695	0.711701	-0.0678744	-0.207596	-1.35907	0.133881	-0.0493122	-0.0109204	-0.415213	-0.0676781	0.0184918	-0.37715	-0.181567	0.0217284	-0.0340679	-0.32503	0.161953	-0.383911	-0.673768	-0.50271	-0.0408031	1.81833	1.25757	0.0394043	-0.0111488	-0.176653	-0.431819	-0.127195	2.33617	1.66374	0.067436	-0.0572898
0.65	0.052961	-0.0594921	0.188925	0.734319	1.01601	-0.375695	0.702872	-0.0638316	-0.213613	-1.24341	0.142653	-0.0493122	-0.0109204	-0.414496	-0.0716934	-0.00448849	-0.419103	-0.223667	0.0217284	-0.0340679	-0.320048	0.160553	-0.394112	-0.680219	-0.506861	-0.0472068	1.8279	1.26324	0.0394043	-0.0111488	-0.195755	-0.437959	-0.11541	2.35373	1.6775	0.067436	-0.0572898
0.658333	0.0480848	-0.053983	0.18549	0.734381	1.01823	-0.375668	0.688255	-0.0609487	-0.217709	-1.12618	0.149584	-0.0493122	-0.0109204	-0.409049	-0.0697627	-0.0198033	-0.475045	-0.252512	0.0217284	-0.0340679	-0.317587	0.155271	-0.40231	-0.684215	-0.509898	-0.0546506	1.83703	1.26842	0.0394043	-0.0111488	-0.216884	-0.445059	-0.103819	2.36896	1.69058	0.067436	-0.0572898
0.666667	0.0444221	-0.0456878	0.180837	0.734296	1.01987	-0.375667	0.668619	-0.0591636	-0.220198	-1.00976	0.154381	-0.0493122	-0.0109204	-0.399748	-0.0623381	-0.0267444	-0.543377	-0.268322	0.0217284	-0.0340679	-0.317556	0.146913	-0.408248	-0.686037	-0.512111	-0.0633905	1.84619	1.27299	0.0394043	-0.0111488	-0.239538	-0.452571	-0.0919915	2.3813	1.70146	0.067436	-0.0572898
0.675	0.0422482	-0.0353175	0.175097	0.734105	1.02089	-0.375713	0.644899	-0.0582784	-0.221213	-0.896892	0.157011	-0.0493122	-0.0109204	-0.387539	-0.0502012	-0.0259439	-0.622115	-0.272377	0.0217284	-0.0340679	-0.319872	0.136397	-0.411639	-0.6859	-0.513901	-0.073545	1.85579	1.27692	0.0394043	-0.0111488	-0.263283	-0.459993	-0.0796212	2.39027	1.70876	0.067436	-0.0572898
0.683333	0.0418336	-0.0236856	0.16831	0.733836	1.02125	-0.375805	0.618166	-0.0579388	-0.220598	-0.790566	0.157667	-0.0493122	-0.0109204	-0.373344	-0.0344449	-0.0192353	-0.709099	-0.266789	0.0217284	-0.0340679	-0.324453	0.124664	-0.412193	-0.683916	-0.515742	-0.0850782	1.86615	1.2803	0.0394043	-0.0111488	-0.287784	-0.466885	-0.0666438	2.39553	1.71156	0.067436	-0.0572898
0.691667	0.0433977	-0.0116576	0.160441	0.733516	1.02094	-0.375908	0.589563	-0.0576481	-0.217892	-0.693791	0.156656	-0.0493122	-0.0109204	-0.357967	-0.0164215	-0.00928026	-0.802187	-0.254126	0.0217284	-0.0340679	-0.331206	0.112605	-0.409641	-0.680087	-0.51813	-0.0978149	1.87744	1.28329	0.0394043	-0.0111488	-0.312824	-0.472887	-0.053276	2.39683	1.70951	0.067436	-0.0572898
